<svg xmlns="http://www.w3.org/2000/svg" xmlns:xlink="http://www.w3.org/1999/xlink" viewBox="0 0 1442.61 465.1"><defs><style>.cls-1{fill:url(#radial-gradient);}.cls-2{fill:url(#radial-gradient-2);}</style><radialGradient id="radial-gradient" cx="1057.98" cy="270.76" r="734.51" gradientTransform="translate(0 141.39) scale(1 0.48)" gradientUnits="userSpaceOnUse"><stop offset="0" stop-color="#6bc184"/><stop offset="0.16" stop-color="#64ae7a"/><stop offset="0.53" stop-color="#578765"/><stop offset="0.82" stop-color="#4f6f59"/><stop offset="1" stop-color="#4c6654"/></radialGradient><radialGradient id="radial-gradient-2" cx="763.39" cy="718.34" r="1348.27" gradientTransform="matrix(1, 0, 0, 0.29, -0.16, 512.92)" gradientUnits="userSpaceOnUse"><stop offset="0" stop-color="#b5996f"/><stop offset="0.36" stop-color="#9aae80"/><stop offset="0.75" stop-color="#82c08f"/><stop offset="1" stop-color="#79c794"/></radialGradient></defs><title>Asset 13</title><g id="Layer_2" data-name="Layer 2"><g id="Layer_1-2" data-name="Layer 1"><path class="cls-1" d="M1211.12,282a39.59,39.59,0,0,0,5-3.61c1.7-1.44,1.09-3.44-.31-4.48a2.55,2.55,0,0,0-.55-2.06c-10.93-14.66-18.5-66.17-9.77-83.67,4.15-8.33,13.34-11.52,19.62-17.86,5.46-5.5,9-12.49,11.61-19.7,2.7-7.45,5.91-16.8,7-26l14.65,21.68a3.16,3.16,0,0,0,5.69-.74c1.89-6.34,6.56-6.06,11.51-8.51,3.48-1.72,5.88-4.79,8.47-7.58a150.21,150.21,0,0,1,24.52-21.42c4.67-3.24,9.64-6.66,15.54-6.36,4.86.24,8.49,1.48,13.18-.54,5.43-2.35,12.76-7.73,13.91-13.95,1.1-5.89-3.56-9-8.78-9.69-.71-.09-4.6.07-5.11-.54-1-1.17.93-3.38,1.56-3.9.9-.73,2.3-.92,3.35-1.38,2.75-1.2,5.27-2.52,6.75-5.26,3.42-6.35-.89-13.2-6.71-16.12-4.11-2.06-7.92-2.65-8.87-7.77-1-5.61,3.06-9,3.47-14.23.45-5.89-4.53-10.86-10.3-8.08-4.55,2.19-10.28,10.34-15.32,5.74-3.9-3.56-.51-14.54-1.12-19.23-.25-1.88-1.8-3.68-3.94-3-6,1.93-9.86,1.89-15.68-.76a31.87,31.87,0,0,0-9.47-2.45c-3.73-.45-7.92-1-11.62,0-4,1.08-7.54,3.9-11,6.07l-11.84,7.47c-2.48,1.56-6.21,3.1-7.8,5.77a6.29,6.29,0,0,0-.3,5.71c1,2.73,1.87,2.16.69,5.25-1.38,3.6-4.38,3.4-7.88,3.64-2.24.16-4,2.57-2.69,4.68s-6.14,7.41-6.91,9.74c-.94,2.85-.09,5.52,1,8.15,1.3,3.09,3.32,5.35,1.67,9-1.07,2.37-3.45,4.08-5.2,5.92-.28.29-.56.59-.83.9a54.84,54.84,0,0,0-3.35-4.51c-5.54-6.63-12.67-10-21.14-11.36-9.45-1.45-24-1-28.27-11.73-1.2-3-6.29-3-6.11.82.23,5.12-.52,9.31-6.41,10.49-3.17.64-6.38.77-9.52,1.64-5.16,1.43-10.3,4.09-13.42,8.59-3.78,5.46-3,12.6-6.52,18.08-4.67,7.26-14.39,8.63-22.25,9.18-12.15.84-27.38.13-29.44,15.32-1.4,10.28.88,23,7.74,31a24.26,24.26,0,0,0,11.76,7.43c6.76,2,15.11,1.8,16,10.61.55,5.62.9,10.11,5.75,13.73,5.38,4,12.09,3.47,18.09,5.75,5.43,2.08,8.52,6.8,14.68,7.29,3.16.25,6.89-.86,10,.09,5.78,1.75,2.72,6.34,3.42,10.6,1,6.07,7.45,6,10.79,10.24,4.87,6.13,3.47,43,1.25,49.87-1.93,6-7.51,14.74-5.69,21.24a9.36,9.36,0,0,0,3.56,4.8h-90.15a4.37,4.37,0,0,0-.31-1.46c-.59-1.38,2.93-4.26,3.93-5s2.29-1.28,3.33-2a13.41,13.41,0,0,0,4.06-4.58c.88-1.6.2-4.23-1.86-4.57-5-.84-8.26-3.88-10.88-8.05a13.31,13.31,0,0,1-1.11-3.28,12.27,12.27,0,0,0,2.59-4.56,29.55,29.55,0,0,0-.37-20c-.56-1.44-1.41-2.76-2-4.18-1-2.46-.21-2.91,0-5.3a20.09,20.09,0,0,0-1.17-7.57c2.27-2.16,5.28-3,6.91-6.13a10.08,10.08,0,0,0,.31-8.29c-1.78-4.89-8.29-12.63-14.12-11.82-3.06.42-4.53,2.61-5.11,5.22a5.92,5.92,0,0,0-3.39-1.54c-1.32-.06-2,.73-3.11,1-2.6.7.3,3.21-3.49-.12-2.33-2-2-2.28-2-5.16a3.14,3.14,0,0,0-2.28-3c-2.76-.32-4.44-2-5-5.06-.24-1.78-1.83-3.81-3.94-3a4.62,4.62,0,0,1-3.06.62c1.85-2.17,6.15-5,7-6.8a10.3,10.3,0,0,0-8.24-14.68c-5.25-.64-9.31,3.33-14.69,2.79-9-.9-14.1.45-16.9,9.6-.94,3.09-1.29,6.71-5,7.23-3,.42-2.6-.47-2.23-3.23.14-1,.57-2.05.72-3.09a18.47,18.47,0,0,0-3.14-12.9c-1.39-2.12-3.94-1.86-5.37,0-.83,1.08-13.84-7.44-16.14-7.87a14.89,14.89,0,0,0-7.91,1c-2.87,1-9.15,4.94-11.66,1a3.14,3.14,0,0,0-4.88-.63c-.28.26-.55.53-.82.8a8.07,8.07,0,0,0-3.92-1.63,11.86,11.86,0,0,0-6.35,1.16c-4.52,1.79-7.09.83-10.92-1.76a20.13,20.13,0,0,0-22.19-.78l-.39-.61a3.08,3.08,0,0,0-2.68-1.54l-19,1.24a3.14,3.14,0,0,0-3,3.94c1.13,1.83.47,3.24-2,4.2a18.59,18.59,0,0,0-1.41-1.67,11.23,11.23,0,0,0-2.72-1.38,4.94,4.94,0,0,0-5.59,2.4,3.05,3.05,0,0,0,0,3.14l-2.81,4.15a3.15,3.15,0,0,0-3.82,2.17c-1,3.56-.37,7.33,2.44,9.93a9.77,9.77,0,0,0,4.19,2.16,16.68,16.68,0,0,0,3.31.35c1,.05,5.74,1.07,5.65,1.09-3.75.77-2.35,5.7.83,6.11a13.59,13.59,0,0,1,8.08,4,3.22,3.22,0,0,0,3.77.48c5.59-2.72,9.94,1.72,9.33,7.21-.2,1.75,1.59,3,3.11,3.11a89.57,89.57,0,0,1,33,8.75,30.06,30.06,0,0,1-6.74-.41c-4.5-.8-8.34-3-12.64-4.39-5.8-1.85-11.4-.9-15,4.17-1.35,1.88.44,4.84,2.68,4.68a19.54,19.54,0,0,1,4.36.19l-2.27.19a3.14,3.14,0,0,0-1.57,5.8,18.7,18.7,0,0,0,9.61,3.31c1.38,1.92,2.58,3.24,3.29,5.72a48.66,48.66,0,0,0,2,6.6c.25.57,3.11,5.84,2.94,5.82-2.66-.22-3.14,3.4-1.26,4.66q2.12,2.76-.35,2.18c-2.08-.06-3.41,2.83-1.77,4.26a8,8,0,0,1,.83.69A5.88,5.88,0,0,0,917,251.3a2.5,2.5,0,0,0,.12.85,3,3,0,0,0-.36,3.62,3.88,3.88,0,0,1,1.27,2.32l-1.8-.07c-2.49-.1-4.38,3.62-2.2,5.31q2.7,1.69.09,4.2c-1.85,1.11-2.2,4.36,0,5.37l.45,1.79c-2,2.68,1.74,5.59,4.25,4.25l3.23,2.62a3.87,3.87,0,0,0-.06.46h289.1Zm-275-2.22a139.34,139.34,0,0,1,17.46,0Z"/><path class="cls-2" d="M1442.61,253.48H1297.29c.86-10.41,4-22.75,8.12-25.52,3.31-2.23,8-5,12-4.38,2.42.34,3.91,1.37,6.5,1,10.61-1.55,12.54-13.31,12.83-22a3,3,0,0,0-1.06-2.3c.12-1.71.32-3.41.56-5.09a37.48,37.48,0,0,0,2.23,4.1c1.59,2.44,9.33,7.54,9.07,10.17s2.78,3.66,4.68,2.68a12.54,12.54,0,0,1,14.13,1.59c2.92,2.64,3.72,6.4,7.48,8.25,7,3.45,16.91,1.76,24.18.15,4.36-1,9.38-2.73,13.55-.46,3.32,1.8,5,5.6,8.49,7.48,4.1,2.19,8.65,3.25,12.71,5.61a48.24,48.24,0,0,1,9.8,7.71V81.68c-5.46-4.73-11.37-9.58-18.6-11.09-8.65-1.8-17.84,2.48-25.7,5.63A186.25,186.25,0,0,0,1352.15,103a68.26,68.26,0,0,0-5.41,4.41c-10.11-9.31-23.52-14.24-36.72-17.85-4.48-1.23-9.69-2-12.64-6-2-2.72-2.72-6.16-5-8.73a10.84,10.84,0,0,0-6.77-3.83c-2.86-.3-8.84,4.56-10.59,3.51a3.13,3.13,0,0,0-4.57,1.85,51.08,51.08,0,0,1-6.4,16.82,33.08,33.08,0,0,1-4.36,6c-2.61,2.67-5.54,3.18-8.8,4.48s-5.66,3.52-8.05,6c-4,4.15-6.86,6-12.33,7.77-8.2,2.58-11.35,8.8-12.57,17a251.85,251.85,0,0,0-2.34,31.77c0,.64,0,1.28,0,1.93a3.14,3.14,0,0,0-1.85-1.49c-4.12-1.32-5.31-6.05-3-9.47,1.56-2.33-1-5.23-3.51-4.57-4,1-8.41-5.08-11.94-6.47-4.28-1.68-9.77.2-13.43-2.39-3.86-2.75-5.45-5.2-10.68-4.91-2.35.13-9.67,2.17-14.61,1.77,2.32-6.11-.41-11.81-5.49-15.79-3.4-2.67-7.67-4.33-10.52-7.66-1-1.2-4.15-5.4-3.35-6.86,1.5-2.76,5.73-.09,7.62.84,2.63,1.28,4.94-.82,4.57-3.52-1.11-8.08-6.26-14.07-12.07-19.32a7.21,7.21,0,0,0,.5-8.25c-2-3.59-6.35-5.6-9-8.66-3.5-4-4.77-8.11-6.58-12.95-1-2.61-2.41-5.57-5.36-6.37-3.27-.9-5.13,1.57-7.66,3.06-5.93,3.51-12.69,0-16.88-4.43-2.67-2.86-4.4-6.92-8.18-8.54-8.13-3.48-15,6.74-21.32,9.78-9.21,4.41-20,4.12-29.93,4.34-8.2.18-16.65.53-21.4,8.29-2,3.35-3,7.22-4.37,10.88a55.16,55.16,0,0,1-10,16.92,3.2,3.2,0,0,0-.49,3.77c5.1,7.48,10.33,19.67,20.06,21.68,4.95,1,10,.15,15,1.38,6.25,1.55,11.73,5.55,16.13,10.12,3.69,3.82,9.29,9.73,11.06,14.88l1.14,1.82L1056,149c-1.15.25-3.63-1.36-4.61-2-2.76-1.86-4.73-4.88-6.33-7.73-1.93-3.42-3.17-7.71-7-9.56-2.13-1-4.64-1-6.91-1.58A30.21,30.21,0,0,1,1022,124a3.15,3.15,0,0,0-4.25,1.12,8.35,8.35,0,0,1-7.81,4.4c-1.56-.11-3-1.25-4.55-1.26s-3.38,1.36-4.42,1.68A14.22,14.22,0,0,1,990,128.78a3.17,3.17,0,0,0-4.26,1.12l-2.71,2.32a3.12,3.12,0,0,0-1.86,4.56c2,3.27-3.18,9.1-3.5,12.51a10.56,10.56,0,0,0,1,5.58c1.62,3.49,4.95,5.93,6.11,9.68,1,3.14.53,6.63,1.14,9.84,2.86,15,19.33,17.52,31.86,19.33,17.53,2.53,35.18,4.63,52.64,7.62a32.9,32.9,0,0,1,10,2.92,12.3,12.3,0,0,1,1.6,1.05q3.23,14.25,6.44,28.49a94.9,94.9,0,0,1,2.11,9.32,6,6,0,0,1,0,4.85l-1.38.81c-1.33,1.67-2.41,2.87-2.62,4.7H829.92C618.31,253.57,246.17,98.09,0,98.09v367H1442.61M1107.32,224.38c-.85,7-1.66,13.22-6.82,18.38-.66.66-1.25,1.3-1.8,1.94-.43-2-.73-4.11-1.13-6q-1.59-7.49-3.31-14.93c-.82-3.58-1.7-7.14-2.57-10.7,2.6,1.85,5.48,3.36,7.16,5.87-.88,2.63,2.71,5.55,5.2,3.16a18.21,18.21,0,0,0,3.9-5.54C1107.89,219.14,1107.64,221.77,1107.32,224.38Zm171.53,29.19H1113.66c2.93-7.15,1.81-21.81,2-28.28q.32-10.39.24-20.79a3.8,3.8,0,0,0,.68-1.82c.24-2.27.36-4.53.38-6.77a37.12,37.12,0,0,1,5-1.32,7.38,7.38,0,0,0,4.78-2.87c.6-.85.6-2.06,1.16-2.88,1.29-1.85,3.61-2.18,5.6-2.75,6.1-1.74,19.63-8.27,24.44-1.58l.2.31a5.35,5.35,0,0,1,.29.47l0,0c.15.21.29.44.46.65,2.24,2.87,6.5-.79,4.88-3.77a13.57,13.57,0,0,0-1.28-1.94,6.58,6.58,0,0,1,8.7-8.85c2.5,1.14,4.4,3.52,6,5.8a9.72,9.72,0,0,0,1.65,2.26c2.4,2.47,7-.82,4.88-3.77-.41-.58-.85-1.18-1.3-1.77-2-4.27,10.65-5.39,9.9-.82-.43,2.57,2,5,4.56,3.51,5.13-2.95,15.88-.88,18.47-7.15,0,6.57.43,13.22,2.9,19.24,3.24,7.88,9.81,13.24,17.53,16.5,9.58,4.06,20,4.5,30,6.65,6.81,1.46,10.83,4.2,12.33,11.13C1278.92,226,1279.86,244.14,1278.85,253.57Zm49.75-43.88a7,7,0,0,1-5.5,4c-2.61.37-3.49-.71-6-1-4.62-.51-10.14,2.64-13.92,5a27.66,27.66,0,0,0-10.72,11.94,131.07,131.07,0,0,1-.88-13.87c0-4.23-.39-9.91,2.24-13.58,3.39-4.74,14.1-4.1,18.75-2,3.67,1.66,6.36,3.84,10.54,4.2a17.19,17.19,0,0,0,7.24-.93A16.5,16.5,0,0,1,1328.6,209.69Z"/></g></g></svg>