<svg xmlns="http://www.w3.org/2000/svg" viewBox="0 0 502.79 246.18"><defs><style>.cls-1{fill:#203036;}</style></defs><title>Asset 4</title><g id="Layer_2" data-name="Layer 2"><g id="Layer_1-2" data-name="Layer 1"><path class="cls-1" d="M2.21,92.45V77.64H4.75V71.93H1L.51,71.5H0v-.72H4.75V67.66H4.12V67L50.33,53.13l26.78,1.1V42.08l-.49-.47v-.52h.49V37.7H76.9v-.81h.21V36h-1.6v-.78l4-1.74v-1.1h1.69l1-2.23h.55V28.3l-.5-.49V26.49h-.17v-.38s1.15-.17,2.86-4.32,5.22-11.24,5.22-11.24V9.38H91.5v1.17S95,17.64,96.72,21.79s2.85,4.32,2.85,4.32v.38h-.16v1.32l-.5.49v1.84h.55l1,2.23h1.69v1.1l4.05,1.74V36h-1.6v.9h.21v.81h-.21v3.39H105v.52l-.49.47V59.69h3.55v-1h.82v1.09l15.39,6.64,1.11-2v-.77H139.8v5.24l13.07-5.35V62.6l1.65-.39v.55l23.7-.49v-.78l1.22.06v1s24.14,11,29.49,11.41c.71.61,1,.94,1,.94l-1.82,2v5.79h2l-.55.77h-1.1V90L215,91.43v1l-1.65,2.67v4.35h7.77L236.5,115.4V246.18H2.21Z"/><polygon class="cls-1" points="502.79 49.16 502.79 40.94 462.45 21.32 445.87 20.31 445.87 6.56 442.44 1.91 431.85 1.91 427.88 6.52 428.12 19.22 418.91 18.66 418.91 4.47 415.6 0.21 404.75 0 400.87 4.54 400.87 17.2 383.29 15.87 343 34.68 343 35.2 339.79 35.2 339.79 36.25 340.66 36.25 340.66 64.26 322.39 71.87 317.56 71.87 317.2 70.93 315.01 70.93 314.21 71.87 314.45 72.33 314.45 73.94 312.05 75.87 313.37 78.76 314.03 78.76 314.03 202.84 502.79 202.84 502.79 49.16"/></g></g></svg>