<svg xmlns="http://www.w3.org/2000/svg" viewBox="0 0 89.19 403.43"><defs><style>.cls-1{fill:#203036;}</style></defs><title>Asset 5</title><g id="Layer_2" data-name="Layer 2"><g id="Layer_1-2" data-name="Layer 1"><path class="cls-1" d="M85.81,55.85H84.07V51.17c-4.71-.33-9.26-2.69-10.32-9.66C72.6,34,67.5,2.1,67.5,2.1H57a3.15,3.15,0,0,0-3.15,3.14V55.85H48.48V0H41.21c-1,0-1.3.82-1.3,1.84V3.62a2,2,0,0,0-1.63,1.93v50.3H33.21V5.24A3.15,3.15,0,0,0,30.06,2.1H19.54S14.44,34,13.29,41.51c-1.06,7-5.61,9.33-10.32,9.66v4.68h.41A3.38,3.38,0,0,0,0,59.23v344.2H89.19V59.23A3.38,3.38,0,0,0,85.81,55.85ZM68.52,104.59v-26h4v36.55h-4Zm.64,124.33V212.84h3.37v16.08Zm3.37,4v15.68H69.16V232.89Zm-3.37-24V194h3.37v14.84Zm0-18.81V175.51h3.37v14.55Zm0-18.52v-6.27h3.37v6.27Zm0-12.4v-3.9h3.37v3.9Zm-.42-7.87v-3.74h.11v-4.07h3.68v7.81Zm.11-10.71v-2.21h3.68v2.21Zm0-5.11v-16h3.68v16Zm-1.53,5.11v-2.21H68v2.21Zm.67,2.9v4.07h-.67v-4.07Zm-4.62-8v-16H68v16Zm3.55-56.88h.74V90.65h-.74Zm-3.48,0h2.61V90.65H63.44ZM62.88,93.1h2.68v9.05H62.88Zm0,11.49h2.68v10.53H62.88ZM60.54,90.53v-12h1.28V90.65H60.54Zm0,2.57H62v9.05H60.54Zm-2-14.53h1.18V90.65H58.5Zm0,14.53h1.18v9.05H58.5Zm0,11.49H62v10.53H58.5Zm0,26.27H62v4.59H58.5Zm0,24.38h2.85v3.9H58.5Zm0,10h2.85v6.27H58.5Zm0,10.24h2.85v14.55H58.5Zm0,18.52h2.85v14.84H58.5Zm0,18.81h2.85v16.08H58.5Zm0,20h2.85v15.68H58.5Zm0,19.65h2.85v11.17h7.81V252.54h3.37v15.93h-14Zm-29-162v-12h1.18V90.65H29.51Zm0,2.57h1.18v9.05H29.51ZM27.37,78.57h1.28V90.65H27.37Zm-.2,14.53h1.48v9.05H27.17Zm0,11.49h3.52v10.53H27.17Zm.67,124.33V212.84h2.85v16.08Zm2.85,4v15.68H27.84V232.89Zm-2.85-24V194h2.85v14.84Zm0-18.81V175.51h2.85v14.55Zm0-18.52v-6.27h2.85v6.27Zm0-12.4v-3.9h2.85v3.9Zm-.66-23.69v-4.59h3.51v4.59Zm-3.56-33.3V93.1h2.69v9.05Zm2.69,2.44v10.53H23.62V104.59Zm-3.18-26h2.61V90.65H23.13Zm-1.6,0h.74V90.65h-.74Zm-.33,40.85h4.62v16H21.2Zm0,18.93h.67v2.21H21.2Zm0,5.11h.67v4.07H21.2ZM16.66,78.57h4v36.55h-4Zm0,40.85h3.68v16H16.66Zm0,18.93h3.68v2.21H16.66Zm0,5.11h3.68v4.07h.11v3.74H16.66Zm0,11.78H20v3.9H16.66Zm0,10H20v6.27H16.66Zm0,10.24H20v14.55H16.66Zm0,18.52H20v14.84H16.66Zm0,18.81H20v16.08H16.66Zm0,20H20v15.68H16.66Zm0,19.65H20v11.17h7.81V252.54h2.85v15.93h-14Z"/></g></g></svg>